<svg xmlns="http://www.w3.org/2000/svg" width="190.868" height="167" viewBox="0 0 190.868 167">
  <g id="Group_1" data-name="Group 1" transform="translate(-1558 -862)">
    <path id="comment-solid" d="M190.839,109.536c0,42.831-42.719,77.536-95.429,77.536A114.134,114.134,0,0,1,56.6,180.4a110.409,110.409,0,0,1-20.241,11.407C27.417,195.682,16.644,199,5.946,199A5.978,5.978,0,0,1,1.7,188.823h0l.112-.112c.112-.112.261-.261.485-.522.41-.447,1.044-1.156,1.827-2.125a71.821,71.821,0,0,0,5.666-8.052c3.728-6.188,7.269-14.314,7.977-23.447C6.579,141.892-.019,126.348-.019,109.536-.019,66.7,42.7,32,95.41,32S190.839,66.7,190.839,109.536Z" transform="translate(1558.03 830)" fill="rgba(76,167,113,0.25)"/>
    <path id="code-solid" d="M72.78.178a5.933,5.933,0,0,0-7.335,4.075L41.735,87.238a5.933,5.933,0,0,0,11.41,3.26L76.855,7.513A5.933,5.933,0,0,0,72.78.178ZM87.71,22.425a5.936,5.936,0,0,0,0,8.391l16.541,16.56-16.56,16.56a5.933,5.933,0,0,0,8.391,8.391L116.829,51.58a5.936,5.936,0,0,0,0-8.391L96.082,22.443a5.936,5.936,0,0,0-8.391,0Zm-56.811,0a5.936,5.936,0,0,0-8.391,0L1.762,43.171a5.936,5.936,0,0,0,0,8.391L22.508,72.308A5.933,5.933,0,1,0,30.9,63.917L14.339,47.376,30.9,30.816a5.936,5.936,0,0,0,0-8.391Z" transform="translate(1594.139 898.124)" fill="rgba(76,167,113,0.25)" opacity="0.61"/>
  </g>
</svg>
